<?xml version="1.0" standalone="no"?><!DOCTYPE svg PUBLIC "-//W3C//DTD SVG 1.1//EN" "http://www.w3.org/Graphics/SVG/1.1/DTD/svg11.dtd"><svg t="1576767622229" class="icon" viewBox="0 0 1024 1024" version="1.1" xmlns="http://www.w3.org/2000/svg" p-id="2428" xmlns:xlink="http://www.w3.org/1999/xlink" width="200" height="200"><defs><style type="text/css"></style></defs><path d="M994.439754 660.806117c-7.212262-16.743336-16.700357-31.44006-22.977317-41.162492l-2.071172-3.218298c-39.845497-62.388932-131.74658-83.677794-229.04151-106.217137-24.629957-5.705955-50.096978-11.604292-74.707492-18.199501l-360.472911-96.589872-95.696526-176.605254c-2.617617-4.830005-7.105838-8.372691-12.412704-9.794064l-85.975117-23.037692c-6.473435-1.734504-13.387915-0.113587-18.415418 4.321422-5.02648 4.435009-7.499811 11.090593-6.585999 17.73185l30.759561 223.676315c0.242524 1.76418 0.720408 3.489474 1.419326 5.128811 2.76395 6.477528 30.43415 64.727187 154.713664 131.318838 8.352225 17.812691 31.934317 36.375465 71.960938 56.95006 19.675108 10.114358 42.123376 20.059871 66.004273 29.341259 19.0908 28.730345 46.902216 66.224284 74.54888 87.980797 49.019437 38.575574 136.808876 57.158814 140.52143 57.932434 0.919952 0.191358 1.835811 0.291642 2.7486 0.353041 2.955308 0.437975 5.938246 0.663102 8.92937 0.663102 13.33061 0 26.969235-4.312212 38.693254-12.57541 15.487739-10.913561 27.173896-27.65485 32.290427-47.14167l0 0.002047c1.592264-6.063089 2.534729-12.19474 2.839675-18.283412 64.833611 18.256806 117.897154 30.986735 157.979034 37.887912 27.259854 4.693906 47.091528 6.460132 61.826114 6.460132 21.428032 0 32.072463-3.738138 39.089273-7.652284 16.820084-9.379625 27.936259-23.254633 32.143071-40.126906C1006.77571 703.006242 1004.047576 683.107029 994.439754 660.806117zM313.360917 556.769646c9.869788-2.735297 31.644721-5.469572 71.876004-2.329045 44.225247 3.444449 97.526197 12.982686 146.236596 26.163893 56.059783 15.172561 77.450976 29.833469 85.522816 39.458687 5.572926 6.64535 5.51255 11.266601 3.214205 19.756973-2.296299 8.478092-4.570085 12.493545-12.726859 15.415085-11.821233 4.230348-37.688367 6.096858-93.752244-9.078773-48.718585-13.1853-99.556437-31.826869-139.474588-51.14382C337.937662 577.438385 320.506664 564.104705 313.360917 556.769646zM477.228055 677.30693c8.671497 2.62785 17.371646 5.127787 26.049283 7.476275 29.642111 8.023744 54.6906 12.455683 75.540464 13.242606-1.001817 2.682086-1.895163 5.421476-2.647293 8.225335-3.362584 12.549827-3.919263 25.390273-1.77646 37.538965-22.472827-8.15268-46.76407-19.1215-64.156182-32.80822C499.247558 702.332906 487.939001 690.322361 477.228055 677.30693zM669.786653 731.302705c0 0.002047 0 0.002047 0 0.002047-3.069919 10.30367-8.839319 19.338441-16.569374 24.786523-3.895727 2.745531-11.82942 6.997368-20.812001 4.587482-8.974395-2.405793-13.674441-10.022261-15.675004-14.347776-3.972475-8.583492-4.666276-19.415189-1.905396-29.719882 2.76088-10.30367 8.778944-19.338441 16.508999-24.786523 3.091408-2.176572 8.683776-5.299703 15.34243-5.299703 1.737574 0 3.580548 0.212848 5.438872 0.711198 8.974395 2.405793 13.704117 10.022261 15.705704 14.347776C671.793356 710.167339 672.856571 720.999035 669.786653 731.302705zM963.723172 710.263529c-0.960885 3.849678-3.333932 9.578146-12.806677 14.862499-2.184759 1.219781-16.055674 6.789637-74.636884-3.296069-42.979884-7.40055-101.901855-21.87624-175.159322-43.029002-8.801457-15.065114-22.672372-25.929556-38.675858-30.218232-0.985444-0.264013-1.978051-0.491187-2.973728-0.704035 2.597151-10.165524 6.491855-31.704073-11.811-53.529147-17.34197-20.678972-51.927673-37.810141-105.733113-52.370765-56.697303-15.346523-117.505227-25.663496-166.832679-28.309766-46.546106-2.496867-76.784804 2.02717-92.559069 14.120602-79.635735-44.307112-116.643604-86.191034-126.485763-104.715947l-26.217105-190.638875 48.554856 13.010315 95.696526 176.606277c2.617617 4.830005 7.105838 8.370645 12.413727 9.79304l368.787274 98.81761c25.269523 6.770194 51.075259 12.749372 76.031651 18.530029 89.115644 20.644179 173.289742 40.145325 204.347085 88.773859l2.176572 3.382027C947.137425 655.746892 968.909288 689.468924 963.723172 710.263529z" p-id="2429" fill="#13227a"></path></svg>