<?xml version="1.0" standalone="no"?><!DOCTYPE svg PUBLIC "-//W3C//DTD SVG 1.1//EN" "http://www.w3.org/Graphics/SVG/1.1/DTD/svg11.dtd"><svg t="1577515834092" class="icon" viewBox="0 0 1024 1024" version="1.1" xmlns="http://www.w3.org/2000/svg" p-id="4724" xmlns:xlink="http://www.w3.org/1999/xlink" width="64" height="64"><defs><style type="text/css"></style></defs><path d="M841.076364 546.909091H162.909091a34.909091 34.909091 0 0 1 0-69.818182h678.167273a34.909091 34.909091 0 0 1 0 69.818182z" p-id="4725" fill="#8a8a8a"></path><path d="M861.090909 546.909091a34.443636 34.443636 0 0 1-24.901818-10.472727l-182.458182-186.181819A34.909091 34.909091 0 0 1 703.534545 302.545455l182.458182 186.181818a34.909091 34.909091 0 0 1 0 49.338182 34.443636 34.443636 0 0 1-24.901818 8.843636z" p-id="4726" fill="#8a8a8a"></path><path d="M678.632727 733.090909a34.909091 34.909091 0 0 1-24.901818-58.181818l182.458182-186.181818a34.909091 34.909091 0 1 1 49.803636 48.872727l-182.458182 186.181818a34.443636 34.443636 0 0 1-24.901818 9.309091z" p-id="4727" fill="#8a8a8a"></path></svg>