<?xml version="1.0" standalone="no"?><!DOCTYPE svg PUBLIC "-//W3C//DTD SVG 1.1//EN" "http://www.w3.org/Graphics/SVG/1.1/DTD/svg11.dtd"><svg t="1576767474530" class="icon" viewBox="0 0 1040 1024" version="1.1" xmlns="http://www.w3.org/2000/svg" p-id="2220" xmlns:xlink="http://www.w3.org/1999/xlink" width="203.125" height="200"><defs><style type="text/css"></style></defs><path d="M1015.684614 306.791292c-8.972349-14.937201-24.938995-27.054169-47.455825-36.013215-16.906042-6.726192-33.971719-10.401908-45.263903-12.83533l-3.740184-0.812505c-72.145134-15.910365-152.029532 33.9226-236.598626 86.679152-21.408589 13.355169-43.545772 27.163663-65.568345 39.879266L294.498314 569.919131l-192.170764-57.099463c-5.258771-1.561565-10.924817-0.893346-15.672958 1.849114l-76.931137 44.416606c-5.79396 3.344165-9.528004 9.368368-9.945513 16.045441-0.418532 6.677073 2.534729 13.119809 7.865131 17.161868l179.560562 136.145773c1.417279 1.074472 2.970658 1.955538 4.622274 2.617617 3.443425 1.38351 21.963221 8.055466 58.504462 8.05342 32.67212 0 79.764672-5.343705 143.348825-24.559349 6.030343 2.180666 13.255908 3.278673 21.75549 3.278673 17.526165 0 40.426735-4.631484 69.229734-13.875009 21.024849-6.747681 43.887556-15.57165 67.292616-25.875321 26.608008 5.364171 60.872393 10.747785 91.279936 10.747785 8.157797 0 16.038278-0.38681 23.414269-1.266853 61.820997-7.370875 136.888693-56.211233 140.05378-58.285474 0.775666-0.508583 1.486864-1.076518 2.167363-1.670036 13.088086-9.699919 22.10546-24.629957 25.099654-41.910529 3.227508-18.632359-0.538259-38.496779-10.606569-55.932893l0 0.001023c-3.178389-5.507434-6.861268-10.512425-10.918677-15.006785 58.765405-32.933063 105.288998-61.448514 138.495284-84.899622 55.342446-39.08518 66.684772-59.041698 70.381977-72.060199C1026.570545 339.303776 1024.62217 321.668117 1015.684614 306.791292zM484.113883 662.021805c-38.036291 13.230326-59.799968 16.123212-69.966515 15.986089 5.037736-8.894577 18.479887-26.189476 49.079812-52.367695 33.642215-28.77844 77.989235-59.664891 121.66906-84.736916 50.27401-28.856211 75.709309-33.596166 88.202854-32.509415 8.621355 0.756223 11.839653 4.061502 16.208147 11.673877 0 0 0 0 0 0.001023 4.364401 7.604188 5.593392 12.043291 1.899256 19.85828-5.354961 11.332093-22.292726 30.898731-72.569806 59.756989C574.948681 624.760157 525.917988 647.481647 484.113883 662.021805zM661.920498 647.899156c-13.864776 1.654686-30.321586 1.159406-47.062875-0.467651 7.975649-4.26514 15.880689-8.641821 23.662933-13.108552 26.660196-15.302521 47.445592-29.872355 62.659085-43.954071 1.184989 2.595105 2.485611 5.15644 3.933589 7.662517 6.478552 11.221576 15.140839 20.671809 25.218358 27.730575C708.696848 635.878378 683.804924 645.289726 661.920498 647.899156zM788.773627 549.7293C788.773627 549.7293 788.773627 549.7293 788.773627 549.7293c5.324262 9.219989 7.453762 19.84293 5.841032 29.143761-0.811482 4.686742-3.373841 13.244652-11.406794 17.882276-8.032954 4.638647-16.72287 2.576685-21.188578 0.936325-8.859785-3.255137-16.994046-10.409071-22.317285-19.630083-5.324262-9.218966-7.453762-19.841907-5.841032-29.142737 0.811482-4.687766 3.373841-13.244652 11.404748-17.882276 3.322675-1.917676 7.059789-2.823302 10.956539-2.823302C767.920694 528.213263 781.060969 536.369014 788.773627 549.7293zM982.897883 346.882382c-0.680499 2.402723-6.540973 16.123212-54.998615 50.347688-35.607986 25.148773-87.512123 56.57246-154.284899 93.415576-16.338107-4.312212-33.503045-2.75167-48.319495 5.803169-0.881067 0.508583-1.741667 1.048889-2.593058 1.600451-5.341658-9.006118-17.792225-26.954909-46.111201-29.440519-26.826995-2.356674-63.330374 9.962909-111.579261 37.656645-50.840922 29.184693-101.036137 64.816215-137.715525 97.759511-34.604122 31.079856-52.749388 55.608505-55.354725 75.272357-87.458911 24.924669-143.147234 21.50478-163.16515 15.378246L55.737442 578.636676l43.447535-25.084305 192.170764 57.099463c5.259794 1.562589 10.92584 0.89437 15.672958-1.849114l329.997829-190.525288c22.614044-13.05534 45.044916-27.049053 66.73696-40.581254 77.461209-48.320519 150.6143-93.967138 206.861348-81.562621l3.929496 0.852414c16.720823 3.602038 55.880705 12.037151 66.892503 30.371728C983.487308 330.753029 985.856261 336.470241 982.897883 346.882382z" p-id="2221" fill="#13227a"></path></svg>